<svg version="1.1" xmlns="http://www.w3.org/2000/svg" xmlns:xlink="http://www.w3.org/1999/xlink" width="366.08696" height="360" viewBox="0,0,366.08696,360"><g transform="translate(3.04348,-95)"><g data-paper-data="{&quot;isPaintingLayer&quot;:true}" fill-rule="nonzero" stroke="none" stroke-width="0" stroke-linecap="butt" stroke-linejoin="miter" stroke-miterlimit="10" stroke-dasharray="" stroke-dashoffset="0" style="mix-blend-mode: normal"><path d="M-3.04348,275c0,-99.41125 81.95136,-180 183.04348,-180c101.09212,0 183.04348,80.58875 183.04348,180c0,99.41125 -81.95136,180 -183.04348,180c-101.09212,0 -183.04348,-80.58875 -183.04348,-180z" fill="#01657c"/><path d="M50.86169,275c0,-69.55454 57.81719,-125.93965 129.13831,-125.93965c71.32111,0 129.13831,56.3851 129.13831,125.93965c0,69.55454 -57.81719,125.93965 -129.13831,125.93965c-71.32111,0 -129.13831,-56.3851 -129.13831,-125.93965z" fill="#00a0c7"/><path d="M83.89473,275c0,-52.14016 43.0278,-94.40811 96.10527,-94.40811c53.07747,0 96.10527,42.26795 96.10527,94.40811c0,52.14016 -43.0278,94.40811 -96.10527,94.40811c-53.07747,0 -96.10527,-42.26795 -96.10527,-94.40811z" fill="#0e0e0e"/></g></g></svg>